<svg id="svg2" xmlns="http://www.w3.org/2000/svg" viewBox="0 0 50 42.41"><defs><style>.cls-1{fill:#fff;}</style></defs><title>ray-cogs</title><g id="layer1"><path id="path3055" class="cls-1" d="M37.92,4.44l-0.7,3.38a8.18,8.18,0,0,0-2.07.61L32.72,6,30,8.22l1.89,2.89a8.15,8.15,0,0,0-1,1.9l-3.45,0L27,16.52l3.38,0.7A8.14,8.14,0,0,0,31,19.29l-2.45,2.43,2.24,2.76,2.89-1.89a8.17,8.17,0,0,0,1.9,1l0,3.45,3.54,0.37,0.7-3.38a8.17,8.17,0,0,0,2.07-.61l2.43,2.45L47,23.67l-1.89-2.88a8.16,8.16,0,0,0,1-1.9h3.45L50,15.36l-3.38-.7A8.19,8.19,0,0,0,46,12.59l2.45-2.43L46.22,7.4,43.34,9.29a8.17,8.17,0,0,0-1.9-1l0-3.45-3.53-.37h0Zm0.59,8.21,0.34,0a3.32,3.32,0,1,1-.34,0h0Zm-25.37.29-0.47,4.7a11.18,11.18,0,0,0-2.73,1.13l-3.65-3L2.84,19.22l3,3.66A11.17,11.17,0,0,0,4.7,25.61L0,26.08v4.86l4.7,0.47a11.17,11.17,0,0,0,1.13,2.73l-3,3.66,3.44,3.44,3.66-3a11.17,11.17,0,0,0,2.73,1.13l0.47,4.7H18l0.47-4.7a11.17,11.17,0,0,0,2.73-1.13l3.66,3L28.3,37.8l-3-3.65a11.18,11.18,0,0,0,1.13-2.73l4.7-.47V26.08l-4.7-.47a11.18,11.18,0,0,0-1.13-2.73l3-3.65-3.44-3.44-3.65,3a11.18,11.18,0,0,0-2.73-1.13L18,12.94H13.13ZM15.57,24a4.5,4.5,0,1,1-4.5,4.5,4.5,4.5,0,0,1,4.5-4.5h0Zm20.65,6-0.5,2.47a5.57,5.57,0,0,0-1.45.45l-1.71-1.79-1.94,1.64L32,34.89a6.05,6.05,0,0,0-.72,1.39H28.8l-0.26,2.59,2.37,0.51a6.16,6.16,0,0,0,.43,1.51l-1.72,1.78,1.57,2,2-1.38a5.67,5.67,0,0,0,1.33.75v2.53L37,46.85l0.49-2.47A5.56,5.56,0,0,0,39,43.93l1.71,1.79,1.94-1.64L41.3,42A6.06,6.06,0,0,0,42,40.59h2.43L44.71,38l-2.37-.51A6.16,6.16,0,0,0,41.9,36l1.72-1.77-1.57-2-2,1.38a5.67,5.67,0,0,0-1.33-.75V30.29L36.22,30h0Zm0.41,6h0.24a2.38,2.38,0,0,1,2.06,2.64,2.34,2.34,0,0,1-2.54,2.14,2.38,2.38,0,0,1-2.06-2.64A2.35,2.35,0,0,1,36.63,36h0Z" transform="translate(0 -4.44)"/></g></svg>