<?xml version="1.0" encoding="UTF-8" standalone="no"?>
<svg width="346px" height="346px" viewBox="0 0 346 346" version="1.1" xmlns="http://www.w3.org/2000/svg" xmlns:xlink="http://www.w3.org/1999/xlink">
    <!-- Generator: Sketch 3.7.2 (28276) - http://www.bohemiancoding.com/sketch -->
    <title>logo</title>
    <desc>Created with Sketch.</desc>
    <defs>
        <radialGradient cx="50%" cy="0%" fx="50%" fy="0%" r="100%" id="radialGradient-1">
            <stop stop-color="#E1F5EE" offset="0%"></stop>
            <stop stop-color="#5DF4EE" offset="100%"></stop>
        </radialGradient>
        <linearGradient x1="49.0501007%" y1="15.557545%" x2="50%" y2="49.7528699%" id="linearGradient-2">
            <stop stop-color="#F9F9F9" offset="0%"></stop>
            <stop stop-color="#EEDF95" offset="100%"></stop>
        </linearGradient>
    </defs>
    <g id="Page-1" stroke="none" stroke-width="1" fill="none" fill-rule="evenodd">
        <g id="logo" transform="translate(1.000000, 1.000000)" stroke="#000000">
            <g id="Page-1">
                <g id="labs1">
                    <g id="Page-1">
                        <g id="labs">
                            <g id="arrows" stroke-width="4" fill="#FFFFFF">
                                <path d="M44.6578313,268.050602 C44.2433735,270.848193 43.9325301,273.749398 43.7253012,276.650602 C43.5180723,279.551807 43.3108434,282.453012 43.2072289,285.457831 L38.3373494,279.759036 L33.8819277,273.956627 C29.6337349,268.154217 25.6963855,262.040964 22.173494,255.720482 C18.6506024,249.4 15.5421687,242.872289 12.8481928,236.137349 C12.5373494,235.308434 12.1228916,234.479518 11.8120482,233.650602 L10.8795181,231.060241 C10.2578313,229.298795 9.63614458,227.640964 9.11807229,225.879518 C8.08192771,222.460241 6.94216867,218.937349 6.11325301,215.414458 C5.28433735,211.891566 4.45542169,208.368675 3.73012048,204.845783 C3.31566265,203.084337 3.10843373,201.322892 2.79759036,199.457831 C2.48674699,197.592771 2.07228916,195.831325 1.86506024,194.06988 C-5.69879518,135.320482 17.6144578,76.8819277 63.4120482,39.4771084 C69.0072289,34.9180723 74.913253,30.6698795 81.026506,26.8361446 C82.5807229,25.9036145 84.0313253,24.8674699 85.6891566,24.0385542 L90.4554217,21.3445783 C93.6674699,19.686747 96.8795181,17.9253012 100.195181,16.4746988 C101.853012,15.7493976 103.510843,14.9204819 105.168675,14.2987952 L106.412048,13.7807229 L107.551807,13.3662651 L109.727711,12.4337349 L106.722892,4.6626506 C116.048193,8.08192771 124.959036,12.3301205 133.455422,17.4072289 C128.689157,25.3855422 124.648193,33.7783133 121.539759,42.4819277 L118.53494,34.8144578 L116.66988,35.6433735 L115.737349,36.0578313 L114.701205,36.4722892 C113.250602,36.9903614 111.8,37.7156627 110.453012,38.3373494 C107.551807,39.5807229 104.857831,41.0313253 102.060241,42.4819277 L98.0192771,44.7614458 C96.6722892,45.486747 95.3253012,46.4192771 94.0819277,47.1445783 C88.7975904,50.460241 83.7204819,54.086747 78.9542169,58.0240964 C18.0289157,107.759036 6.83855422,196.349398 53.3614458,259.554217 L57.1951807,264.631325 L61.2361446,269.501205 C58.5421687,269.39759 55.7445783,269.293976 52.946988,268.983133 C50.253012,268.775904 47.4554217,268.361446 44.6578313,268.050602 L44.6578313,268.050602 L44.6578313,268.050602 L44.6578313,268.050602 L44.6578313,268.050602 Z" id="Shape"></path>
                                <path d="M284.628916,285.043373 C290.431325,285.043373 296.233735,284.73253 302.036145,284.110843 L297.062651,289.60241 C296.233735,290.53494 295.404819,291.363855 294.472289,292.296386 L291.881928,294.783133 C276.754217,309.6 259.036145,321.412048 239.660241,329.804819 C220.284337,338.19759 199.457831,342.860241 178.320482,343.481928 C146.510843,344.725301 115.012048,336.954217 87.346988,321.204819 C86.2072289,320.583133 85.0674699,319.857831 83.9277108,319.236145 L82.9951807,318.614458 L81.9590361,317.992771 L79.886747,316.749398 L75.5349398,323.795181 C72.8409639,314.262651 70.9759036,304.522892 70.0433735,294.679518 C79.2650602,293.850602 88.3831325,292.089157 97.3975904,289.498795 L92.9421687,296.544578 L94.7036145,297.580723 L95.6361446,298.098795 L96.4650602,298.616867 C97.3975904,299.238554 98.4337349,299.860241 99.3662651,300.378313 C123.093976,313.951807 150.240964,320.479518 177.595181,319.443373 C195.727711,318.925301 213.653012,314.884337 230.33494,307.631325 C247.016867,300.481928 262.248193,290.327711 275.2,277.583133 L277.479518,275.407229 C278.204819,274.681928 279.033735,273.956627 279.655422,273.127711 L283.903614,268.46506 C284.318072,273.853012 284.628916,279.448193 284.628916,285.043373 L284.628916,285.043373 L284.628916,285.043373 L284.628916,285.043373 L284.628916,285.043373 Z" id="Shape_1_"></path>
                                <path d="M184.019277,13.2626506 C180.289157,8.80722892 176.248193,4.6626506 172,0.725301205 L179.356627,0.93253012 C180.6,0.93253012 181.843373,1.03614458 183.086747,1.13975904 L186.816867,1.45060241 C208.990361,3.31566265 230.645783,9.53253012 250.436145,19.686747 C253.751807,21.3445783 256.963855,23.2096386 260.175904,25.0746988 C261.73012,26.0072289 263.284337,27.0433735 264.838554,28.0795181 C266.392771,29.1156627 267.946988,30.0481928 269.501205,31.1879518 C293.954217,48.0771084 313.640964,71.0795181 326.696386,97.9156627 L328.975904,102.992771 L330.115663,105.479518 L331.151807,108.06988 L333.224096,113.250602 L334.985542,118.53494 L335.918072,121.125301 C336.228916,121.954217 336.436145,122.886747 336.746988,123.819277 L338.301205,129.207229 C338.715663,130.968675 339.13012,132.833735 339.544578,134.595181 C339.959036,136.356627 340.373494,138.221687 340.684337,139.983133 C343.481928,154.489157 344.310843,169.409639 343.378313,184.122892 C342.342169,198.939759 339.440964,213.549398 334.674699,227.537349 L332.809639,232.718072 L332.291566,233.961446 L331.877108,235.101205 L330.944578,237.380723 L338.612048,240.489157 C329.701205,244.840964 320.479518,248.363855 310.946988,251.057831 C308.460241,242.146988 305.144578,233.443373 301,225.050602 L308.66747,228.159036 L309.392771,226.293976 L309.807229,225.361446 L310.221687,224.325301 L311.775904,219.86988 C315.920482,207.850602 318.407229,195.313253 319.236145,182.568675 C320.06506,169.824096 319.339759,157.079518 316.956627,144.542169 C316.749398,142.987952 316.33494,141.433735 316.024096,139.879518 C315.609639,138.325301 315.298795,136.771084 314.987952,135.216867 L313.640964,130.657831 C313.433735,129.93253 313.226506,129.103614 313.019277,128.378313 L312.190361,126.20241 L310.739759,121.746988 L308.978313,117.291566 L308.045783,115.115663 L307.009639,112.939759 L305.040964,108.587952 C293.850602,85.5855422 276.961446,65.7951807 255.927711,51.2891566 C254.684337,50.3566265 253.233735,49.5277108 251.990361,48.6987952 C250.643373,47.8698795 249.296386,46.9373494 247.949398,46.1084337 C245.151807,44.5542169 242.457831,42.8963855 239.556627,41.4457831 C222.563855,32.6385542 204.016867,27.3542169 184.951807,25.6963855 L181.739759,25.4891566 C180.703614,25.3855422 179.66747,25.2819277 178.527711,25.2819277 L172.207229,25.0746988 C175.833735,20.7228916 179.771084,16.8891566 184.019277,13.2626506 L184.019277,13.2626506 L184.019277,13.2626506 L184.019277,13.2626506 L184.019277,13.2626506 Z" id="Shape_2_"></path>
                                <animateTransform attributeName="transform"
                                 attributeType="XML"
                                 type="rotate"
                                 from="0 172 172"
                                 to="360 172 172"
                                 dur="3s"
                                 repeatCount="3"  />
                            </g>
                            <g id="Group" transform="translate(96.000000, 68.000000)">
                                <path d="M91.7084337,11.286747 L98.6506024,11.1831325 L98.6506024,0.303614458 L52.7493976,0.303614458 L52.7493976,11.1831325 L59.5879518,11.1831325 L59.5879518,11.286747 L59.5879518,75.4240964 C59.5879518,76.460241 59.3807229,77.3927711 58.9662651,78.3253012 L1.46024096,198.725301 C0.424096386,200.79759 0.631325301,203.284337 1.8746988,205.253012 C3.11807229,207.221687 5.2939759,208.361446 7.67710843,208.361446 L146.00241,208.361446 C148.385542,208.361446 150.561446,207.118072 151.804819,205.149398 C153.048193,203.180723 153.151807,200.693976 152.115663,198.518072 L92.4337349,79.4650602 C91.9156627,78.5325301 91.7084337,77.4963855 91.7084337,76.460241 L91.7084337,11.286747 L91.7084337,11.286747 L91.7084337,11.286747 L91.7084337,11.286747 Z" id="top_1_" stroke-width="4"></path>
                                <path d="M108.493976,111.896386 C108.493976,111.896386 150.146988,195.409639 152.115663,198.518072 C154.084337,201.626506 150.146988,208.361446 146.00241,208.361446 L7.67710843,208.361446 C3.63614458,208.361446 -1.02650602,203.387952 1.56385542,198.725301 C4.36144578,192.819277 42.4915663,113.243373 42.4915663,113.243373 C56.4795181,105.886747 59.0698795,117.180723 69.0168675,113.657831 C75.7518072,111.274699 74.4048193,106.508434 80.1036145,108.166265 C84.7662651,109.306024 102.380723,118.631325 108.493976,111.896386" id="Path-8_1_" stroke-width="2" fill="url(#linearGradient-2)"></path>
                                <circle id="Oval" stroke-width="2" fill="#FFFFFF" cx="76" cy="132" r="8">
                             <animateTransform attributeName="transform"
                             attributeType="XML"
                             type="rotate"
                             from="0 90 172"
                             to="-35 50 172"
                             dur="1s"
                             repeatCount="9"  />       
                                </circle>
                                <ellipse id="Oval_1_" stroke-width="2" fill="#FFFFFF" cx="95" cy="166" rx="21" ry="21">
                                 <animateTransform attributeName="transform"
                                 attributeType="XML"
                                 type="rotate"
                                 from="0 90 172"
                                 to="-15 50 172"
                                 dur="1.5s"
                                 repeatCount="6"  />    
                                </ellipse>
                                <circle id="Oval_2_" stroke-width="2" fill="#FFFFFF" cx="54" cy="154" r="12">
                            <animateTransform attributeName="transform"
                             attributeType="XML"
                             type="rotate"
                             from="0 90 172"
                             to="25 50 172"
                             dur="1.25s"
                             repeatCount="7"  />
                                </circle>
                            </g>
                        </g>
                    </g>
                </g>
            </g>
        </g>
    </g>
</svg>